<!-- Generated by IcoMoon.io -->
<svg version="1.1" xmlns="http://www.w3.org/2000/svg" width="1024" height="1024" viewBox="0 0 1024 1024">
<title></title>
<g id="icomoon-ignore">
</g>
<path fill="#000" d="M1007.524 200.409c-7.625-12.023-20.088-20.393-34.583-22.384l-0.254-0.029-539.62-71.624c-1.94-0.271-4.18-0.426-6.456-0.426-27.145 0-49.15 22.005-49.15 49.15 0 24.868 18.469 45.423 42.439 48.695l0.254 0.029 481.638 63.098-92.576 276.022h-404.41l-100.372-475.548c-4.784-22.284-24.315-38.746-47.692-38.746-0.362 0-0.725 0.005-1.086 0.012l0.053-0.002h-216.092c-26.909 0-48.724 21.815-48.724 48.724s21.815 48.724 48.724 48.724v0h177.599l99.884 475.548c4.784 22.284 24.315 38.746 47.692 38.746 0.362 0 0.725-0.005 1.086-0.012l-0.053 0.002h478.471c0.014 0 0.029 0 0.044 0 21.42 0 39.611-13.822 46.142-33.033l0.102-0.343 121.81-365.431c1.584-4.597 2.499-9.894 2.499-15.404 0-9.547-2.745-18.451-7.49-25.968l0.119 0.201z"></path>
<path fill="#000" d="M369.238 688.539c-89.205 0-161.52 72.316-161.52 161.52s72.316 161.52 161.52 161.52c89.205 0 161.52-72.316 161.52-161.52v0c0-89.205-72.316-161.52-161.52-161.52v0zM369.238 913.888c-35.386 0-64.072-28.686-64.072-64.072s28.686-64.072 64.072-64.072c35.386 0 64.072 28.686 64.072 64.072 0 0.085 0 0.171 0 0.257v-0.014c-0.139 35.281-28.772 63.829-64.072 63.829 0 0 0 0 0 0v0z"></path>
<path fill="#000" d="M778.521 688.539c-89.205 0-161.52 72.316-161.52 161.52s72.316 161.52 161.52 161.52c89.205 0 161.52-72.316 161.52-161.52v0c0-89.205-72.316-161.52-161.52-161.52v0zM778.521 913.888c-35.386 0-64.072-28.686-64.072-64.072s28.686-64.072 64.072-64.072c35.386 0 64.072 28.686 64.072 64.072 0 0.085 0 0.171 0 0.257v-0.014c-0.139 35.281-28.772 63.829-64.072 63.829 0 0 0 0 0 0v0z"></path>
</svg>
