<!-- Generated by IcoMoon.io -->
<svg version="1.1" xmlns="http://www.w3.org/2000/svg" width="1024" height="1024" viewBox="0 0 1024 1024">
<title></title>
<g id="icomoon-ignore">
</g>
<path fill="#000" d="M676.248 0h-328.496c-96.283 0-174.442 78.159-174.442 174.442v787.256c0 23.788 13.593 44.177 35.115 53.239 6.796 3.398 14.726 4.531 21.522 4.531 14.726 0 29.451-5.664 40.779-16.991l241.274-240.142 241.274 240.142c16.991 16.991 40.779 21.522 62.301 12.46s35.115-29.451 35.115-53.239v-787.256c0-96.283-78.159-174.442-174.442-174.442zM782.726 936.779l-229.947-229.947c-11.327-11.327-24.92-16.991-40.779-16.991s-29.451 5.664-40.779 16.991l-229.947 229.947v-762.336c0-58.903 47.575-106.478 106.478-106.478h328.496c58.903 0 106.478 47.575 106.478 106.478v762.336z"></path>
</svg>
